[h264 @ 0x5615f19a5180] Reinit context to 1280x720, pix_fmt: yuv420p
Input #0, mov,mp4,m4a,3gp,3g2,mj2, from '/var/www/html/project/media/video/original/camaldoli1.mp4':
  Metadata:
    major_brand     : mp42
    minor_version   : 1
    compatible_brands: isommp41mp42
    creation_time   : 2024-06-23T18:48:07.000000Z
  Duration: 00:00:45.64, start: 0.000000, bitrate: 11930 kb/s
    Stream #0:0(eng): Audio: aac (LC) (mp4a / 0x6134706D), 48000 Hz, stereo, fltp, 123 kb/s (default)
    Metadata:
      creation_time   : 2024-06-23T18:48:07.000000Z
      handler_name    : Core Media Audio
    Stream #0:1(und): Video: h264 (High), 1 reference frame (avc1 / 0x31637661), yuv420p(tv, bt709, progressive, left), 1280x720, 11774 kb/s, SAR 1:1 DAR 16:9, 25 fps, 25 tbr, 25k tbn, 50k tbc (default)
    Metadata:
      creation_time   : 2024-06-23T18:48:07.000000Z
      handler_name    : Core Media Video
Input #1, png_pipe, from '/var/www/html/project/static/images/templates/logo.png':
  Duration: N/A, bitrate: N/A
    Stream #1:0: Video: png, 1 reference frame, rgba(pc), 1920x1080 [SAR 2835:2835 DAR 16:9], 25 tbr, 25 tbn, 25 tbc
[h264 @ 0x5615f19f8f80] Reinit context to 1280x720, pix_fmt: yuv420p
Input #2, mov,mp4,m4a,3gp,3g2,mj2, from '/var/www/html/project/static/images/templates/Codino.mp4':
  Metadata:
    major_brand     : mp42
    minor_version   : 1
    compatible_brands: isommp41mp42
    creation_time   : 2021-07-11T07:02:58.000000Z
  Duration: 00:00:02.00, start: 0.000000, bitrate: 1007 kb/s
    Stream #2:0(ita): Audio: aac (LC) (mp4a / 0x6134706D), 44100 Hz, stereo, fltp, 102 kb/s (default)
    Metadata:
      creation_time   : 2021-07-11T07:02:58.000000Z
      handler_name    : Core Media Audio
    Stream #2:1(und): Video: h264 (High), 1 reference frame (avc1 / 0x31637661), yuv420p(tv, bt709, progressive, left), 1280x720 [SAR 1:1 DAR 16:9], 813 kb/s, 25 fps, 25 tbr, 25k tbn, 50k tbc (default)
    Metadata:
      creation_time   : 2021-07-11T07:02:58.000000Z
      handler_name    : Core Media Video
[Parsed_scale_0 @ 0x5615f19a3680] w:1920 h:1080 flags:'bilinear' interl:0
[Parsed_scale_2 @ 0x5615f1b10a40] w:1920 h:1080 flags:'bilinear' interl:0
[Parsed_scale_4 @ 0x5615f19ddc80] w:1920 h:1080 flags:'bilinear' interl:0
Stream mapping:
  Stream #0:0 (aac) -> concat:in0:a0
  Stream #0:1 (h264) -> scale
  Stream #1:0 (png) -> scale
  Stream #2:0 (aac) -> concat:in1:a0
  Stream #2:1 (h264) -> scale
  concat:out:v0 -> Stream #0:0 (libx264)
  concat:out:a0 -> Stream #0:1 (aac)
Press [q] to stop, [?] for help
[h264 @ 0x5615f19d86c0] Reinit context to 1280x720, pix_fmt: yuv420p
[h264 @ 0x5615f1dc8e00] Reinit context to 1280x720, pix_fmt: yuv420p
[Parsed_scale_0 @ 0x5615f2d70f00] w:1920 h:1080 flags:'bilinear' interl:0
[Parsed_scale_2 @ 0x5615f2d78e80] w:1920 h:1080 flags:'bilinear' interl:0
[Parsed_scale_4 @ 0x5615f2d7aac0] w:1920 h:1080 flags:'bilinear' interl:0
[graph 0 input from stream 0:1 @ 0x5615f2d7f240] w:1280 h:720 pixfmt:yuv420p tb:1/25000 fr:25/1 sar:1/1 sws_param:flags=2
[graph 0 input from stream 1:0 @ 0x5615f2d80280] w:1920 h:1080 pixfmt:rgba tb:1/25 fr:25/1 sar:2835/2835 sws_param:flags=2
[graph 0 input from stream 2:1 @ 0x5615f2d81300] w:1280 h:720 pixfmt:yuv420p tb:1/25000 fr:25/1 sar:1/1 sws_param:flags=2
[graph_0_in_0_0 @ 0x5615f2d822c0] tb:1/48000 samplefmt:fltp samplerate:48000 chlayout:0x3
[graph_0_in_2_0 @ 0x5615f2d83400] tb:1/44100 samplefmt:fltp samplerate:44100 chlayout:0x3
[Parsed_concat_7 @ 0x5615f2d7d280] auto-inserting filter 'auto_resampler_0' between the filter 'graph_0_in_2_0' and the filter 'Parsed_concat_7'
[Parsed_scale_0 @ 0x5615f2d70f00] w:1280 h:720 fmt:yuv420p sar:1/1 -> w:1920 h:1080 fmt:yuv420p sar:1/1 flags:0x2
[Parsed_setsar_1 @ 0x5615f2d79000] w:1920 h:1080 sar:1/1 dar:16/9 -> sar:1/1 dar:16/9
[Parsed_scale_2 @ 0x5615f2d78e80] w:1920 h:1080 fmt:rgba sar:2835/2835 -> w:1920 h:1080 fmt:yuva420p sar:1/1 flags:0x2
[Parsed_setsar_3 @ 0x5615f2d79dc0] w:1920 h:1080 sar:1/1 dar:16/9 -> sar:1/1 dar:16/9
[Parsed_overlay_6 @ 0x5615f2d7c140] main w:1920 h:1080 fmt:yuv420p overlay w:1920 h:1080 fmt:yuva420p
[Parsed_overlay_6 @ 0x5615f2d7c140] [framesync @ 0x5615f2d7c2a8] Selected 1/25000 time base
[Parsed_overlay_6 @ 0x5615f2d7c140] [framesync @ 0x5615f2d7c2a8] Sync level 2
[Parsed_scale_4 @ 0x5615f2d7aac0] w:1280 h:720 fmt:yuv420p sar:1/1 -> w:1920 h:1080 fmt:yuv420p sar:1/1 flags:0x2
[Parsed_setsar_5 @ 0x5615f2d7b5c0] w:1920 h:1080 sar:1/1 dar:16/9 -> sar:1/1 dar:16/9
[auto_resampler_0 @ 0x5615f2d8ac00] ch:2 chl:stereo fmt:fltp r:44100Hz -> ch:2 chl:stereo fmt:fltp r:48000Hz
[libx264 @ 0x5615f1a2e880] using SAR=1/1
[libx264 @ 0x5615f1a2e880] using cpu capabilities: MMX2 SSE2Fast SSSE3 SSE4.2 AVX FMA3 BMI2 AVX2
[libx264 @ 0x5615f1a2e880] profile High, level 4.0
[libx264 @ 0x5615f1a2e880] 264 - core 155 r2917 0a84d98 - H.264/MPEG-4 AVC codec - Copyleft 2003-2018 - http://www.videolan.org/x264.html - options: cabac=1 ref=1 deblock=1:0:0 analyse=0x3:0x113 me=hex subme=2 psy=1 psy_rd=1.00:0.00 mixed_ref=0 me_range=16 chroma_me=1 trellis=0 8x8dct=1 cqm=0 deadzone=21,11 fast_pskip=1 chroma_qp_offset=0 threads=24 lookahead_threads=8 sliced_threads=0 nr=0 decimate=1 interlaced=0 bluray_compat=0 constrained_intra=0 bframes=3 b_pyramid=2 b_adapt=1 b_bias=0 direct=1 weightb=1 open_gop=0 weightp=1 keyint=250 keyint_min=25 scenecut=40 intra_refresh=0 rc_lookahead=10 rc=crf mbtree=1 crf=18.0 qcomp=0.60 qpmin=0 qpmax=69 qpstep=4 ip_ratio=1.40 aq=1:1.00
Output #0, mp4, to '/var/www/html/project/media/video/watermarks/camaldoli1.mp4':
  Metadata:
    major_brand     : mp42
    minor_version   : 1
    compatible_brands: isommp41mp42
    encoder         : Lavf58.29.100
    Stream #0:0: Video: h264 (libx264), 1 reference frame (avc1 / 0x31637661), yuv420p(progressive), 1920x1080 [SAR 1:1 DAR 16:9], q=-1--1, 25 fps, 12800 tbn, 25 tbc (default)
    Metadata:
      encoder         : Lavc58.54.100 libx264
    Side data:
      cpb: bitrate max/min/avg: 0/0/0 buffer size: 0 vbv_delay: -1
    Stream #0:1: Audio: aac (LC) (mp4a / 0x6134706D), 48000 Hz, stereo, fltp, delay 1024, 128 kb/s (default)
    Metadata:
      encoder         : Lavc58.54.100 aac
[Parsed_concat_7 @ 0x5615f2d7d280] EOF on in0:a0, 1 streams left in segment.
[Parsed_overlay_6 @ 0x5615f2d7c140] [framesync @ 0x5615f2d7c2a8] Sync level 0
[Parsed_concat_7 @ 0x5615f2d7d280] EOF on in0:v0, 0 streams left in segment.
[Parsed_concat_7 @ 0x5615f2d7d280] Segment finished at pts=45652000
[Parsed_concat_7 @ 0x5615f2d7d280] EOF on in1:v0, 1 streams left in segment.
[Parsed_concat_7 @ 0x5615f2d7d280] EOF on in1:a0, 0 streams left in segment.
[Parsed_concat_7 @ 0x5615f2d7d280] Segment finished at pts=47670687
No more output streams to write to, finishing.
frame= 1191 fps= 43 q=-1.0 Lsize=   25211kB time=00:00:47.68 bitrate=4331.5kbits/s speed=1.72x    
[AVIOContext @ 0x5615f199d440] Statistics: 0 seeks, 54 writeouts
video:24434kB audio:740kB subtitle:0kB other streams:0kB global headers:0kB muxing overhead: 0.144796%
Input file #0 (/var/www/html/project/media/video/original/camaldoli1.mp4):
  Input stream #0:0 (audio): 2142 packets read (705453 bytes); 2140 frames decoded (2191296 samples); 
  Input stream #0:1 (video): 1141 packets read (67175060 bytes); 1141 frames decoded; 
  Total: 3283 packets (67880513 bytes) demuxed
Input file #1 (/var/www/html/project/static/images/templates/logo.png):
  Input stream #1:0 (video): 1 packets read (111578 bytes); 1 frames decoded; 
  Total: 1 packets (111578 bytes) demuxed
Input file #2 (/var/www/html/project/static/images/templates/Codino.mp4):
  Input stream #2:0 (audio): 89 packets read (26579 bytes); 87 frames decoded (89024 samples); 
  Input stream #2:1 (video): 50 packets read (203365 bytes); 50 frames decoded; 
  Total: 139 packets (229944 bytes) demuxed
Output file #0 (/var/www/html/project/media/video/watermarks/camaldoli1.mp4):
  Output stream #0:0 (video): 1191 frames encoded; 1191 packets muxed (25020903 bytes); 
  Output stream #0:1 (audio): 2235 frames encoded (2288193 samples); 2236 packets muxed (757465 bytes); 
  Total: 3427 packets (25778368 bytes) muxed
[AVIOContext @ 0x5615f1a02200] Statistics: 2 seeks, 102 writeouts
[libx264 @ 0x5615f1a2e880] frame I:8     Avg QP:13.25  size:137581
[libx264 @ 0x5615f1a2e880] frame P:360   Avg QP:17.20  size: 44748
[libx264 @ 0x5615f1a2e880] frame B:823   Avg QP:19.40  size:  9490
[libx264 @ 0x5615f1a2e880] consecutive B-frames:  4.5%  7.1%  9.6% 78.9%
[libx264 @ 0x5615f1a2e880] mb I  I16..4: 25.9% 24.1% 50.0%
[libx264 @ 0x5615f1a2e880] mb P  I16..4:  8.3% 12.1%  2.1%  P16..4: 33.2% 18.7% 10.1%  0.0%  0.0%    skip:15.5%
[libx264 @ 0x5615f1a2e880] mb B  I16..4:  1.4%  0.7%  0.1%  B16..8: 20.1%  6.4%  0.4%  direct:11.6%  skip:59.4%  L0:40.0% L1:48.5% BI:11.5%
[libx264 @ 0x5615f1a2e880] 8x8 transform intra:48.1% inter:41.3%
[libx264 @ 0x5615f1a2e880] coded y,uvDC,uvAC intra: 44.4% 53.3% 19.1% inter: 10.7% 18.2% 0.4%
[libx264 @ 0x5615f1a2e880] i16 v,h,dc,p: 42% 37% 14%  8%
[libx264 @ 0x5615f1a2e880] i8 v,h,dc,ddl,ddr,vr,hd,vl,hu: 23% 32% 19%  3%  5%  4%  6%  3%  4%
[libx264 @ 0x5615f1a2e880] i4 v,h,dc,ddl,ddr,vr,hd,vl,hu: 27% 27% 14%  4%  7%  5%  7%  4%  5%
[libx264 @ 0x5615f1a2e880] i8c dc,h,v,p: 50% 26% 19%  5%
[libx264 @ 0x5615f1a2e880] Weighted P-Frames: Y:1.1% UV:0.0%
[libx264 @ 0x5615f1a2e880] kb/s:4201.55
[aac @ 0x5615f1b5d600] Qavg: 1107.377
[AVIOContext @ 0x5615f19a63c0] Statistics: 105360011 bytes read, 2278 seeks
[AVIOContext @ 0x5615f19ee7c0] Statistics: 111578 bytes read, 0 seeks
[AVIOContext @ 0x5615f1a0f200] Statistics: 1530915 bytes read, 42 seeks
